<svg version="1.1" id="Layer_1" xmlns="http://www.w3.org/2000/svg" xmlns:xlink="http://www.w3.org/1999/xlink" x="0px" y="0px"
	 width="100%" viewBox="200 250 650 500" enable-background="new 0 0 1024 1024" xml:space="preserve">
<path fill="#FEFEFE" opacity="1.000000" stroke="none" 
	d="
M483.539307,528.427795 
	C500.190796,501.647552 516.419922,474.512848 542.294983,455.147308 
	C555.835388,445.013336 570.810730,437.740143 587.625305,435.380737 
	C618.043091,431.112579 633.836914,451.681335 630.453796,478.724152 
	C626.772034,508.154266 615.379517,535.531494 606.542114,563.574829 
	C600.913818,581.435120 595.155396,599.255432 589.685059,617.163818 
	C588.590149,620.748047 588.174805,624.640503 588.077576,628.407166 
	C587.894104,635.512756 591.744324,638.179504 598.725159,636.160950 
	C608.659485,633.288452 615.212952,625.963867 621.497009,618.453979 
	C624.981689,614.289612 627.897888,609.649475 630.878113,605.491821 
	C634.415405,608.896240 638.051758,612.395996 641.911621,616.110840 
	C628.448242,637.432129 612.381226,656.576965 588.478027,667.494812 
	C578.413025,672.092041 567.842834,674.804199 556.686279,671.925537 
	C542.222290,668.193542 533.452454,651.964478 536.506775,635.086670 
	C542.266113,603.261292 553.219910,572.894958 562.425476,542.030701 
	C567.124451,526.276245 571.256287,510.347046 575.335449,494.417725 
	C576.221741,490.956329 576.224243,487.110046 575.845215,483.524414 
	C575.394531,479.261810 573.089783,476.466522 568.220520,475.861298 
	C559.253845,474.746796 551.658508,478.016083 544.503296,482.634979 
	C531.166016,491.244537 521.188599,503.286163 511.404175,515.534363 
	C482.352844,551.901123 466.303619,594.425842 453.046570,638.284485 
	C450.621490,646.307434 448.254333,654.350098 446.025238,662.429077 
	C444.962036,666.282410 443.109924,668.173279 438.712219,668.068420 
	C426.720825,667.782349 414.718079,667.986084 402.719879,667.965027 
	C396.953613,667.954956 396.113556,666.730286 397.647827,661.047729 
	C419.379242,580.560364 441.149689,500.083527 462.781555,419.569458 
	C467.605316,401.615295 472.038574,383.553223 476.390167,365.477905 
	C477.186432,362.170410 477.248718,358.473450 476.708527,355.107300 
	C475.919891,350.192444 470.903870,347.356873 463.298309,347.090759 
	C457.139771,346.875214 450.959991,346.810486 444.806305,347.071960 
	C440.628967,347.249420 440.235138,345.630310 440.990753,342.037750 
	C442.456238,335.070190 445.171021,331.012268 453.353790,329.485840 
	C480.552094,324.412231 507.516571,318.086487 534.575684,312.263947 
	C538.793152,311.356445 540.661621,313.817963 539.417847,318.609406 
	C532.681152,344.561279 526.176331,370.576508 519.128540,396.443787 
	C507.631744,438.639923 495.777191,480.738647 484.075745,522.879028 
	C483.680756,524.301514 483.309296,525.730469 482.631775,527.644165 
	C482.268188,528.689026 482.199646,529.246094 482.017731,530.724915 
	C482.877655,529.426697 483.208466,528.927246 483.539307,528.427795 
z"/>
<path fill="#FEFEFE" opacity="1.000000" stroke="none" 
	d="
M262.998596,382.000000 
	C262.997559,365.671021 262.236572,349.798218 263.146759,334.021820 
	C265.335266,296.087891 284.803131,271.590881 325.664734,263.169678 
	C335.501404,261.142395 345.767670,261.199799 356.255737,260.260956 
	C356.255737,270.253326 356.255737,279.333527 356.255737,288.713348 
	C350.119293,289.606232 343.862335,290.112823 337.797516,291.474915 
	C319.638550,295.553253 310.114716,307.988129 307.169861,325.537445 
	C305.583435,334.991577 305.173767,344.722351 305.094879,354.335419 
	C304.856842,383.327118 305.274689,412.324493 304.993683,441.315399 
	C304.721100,469.431854 291.344360,489.291748 265.817657,500.997894 
	C262.706818,502.424469 259.561005,503.774780 256.122620,505.297119 
	C271.525238,511.099609 285.488129,518.247925 295.233765,531.630188 
	C301.781158,540.620850 304.895325,550.811157 304.944946,561.790161 
	C305.097046,595.449524 304.631714,629.116699 305.237823,662.765808 
	C305.407379,672.177917 307.377472,681.902161 310.408813,690.843384 
	C316.007690,707.357788 329.754211,713.769470 345.975159,715.985535 
	C349.425385,716.456848 352.894287,716.791199 356.453156,717.199951 
	C356.453156,726.285706 356.453156,735.358276 356.453156,744.662476 
	C332.573151,745.334290 309.805511,743.051453 289.972656,728.631775 
	C275.125641,717.837158 266.381775,702.994019 264.234009,685.062744 
	C262.540161,670.920959 262.691833,656.528992 262.506439,642.241943 
	C262.154114,615.092590 262.607239,587.925537 261.826996,560.791748 
	C261.347015,544.099365 252.361862,531.833679 237.763458,523.985107 
	C231.903748,520.834717 225.557373,518.589539 218.956604,515.725830 
	C218.956604,509.297455 218.777069,502.307251 219.131729,495.344238 
	C219.191467,494.171295 221.385864,492.546600 222.884964,492.093536 
	C239.035477,487.212708 251.646729,478.255829 258.588470,462.317719 
	C262.061829,454.342926 262.397552,445.910797 262.534485,437.484497 
	C262.832336,419.158661 262.860260,400.828430 262.998596,382.000000 
z"/>
<path fill="#FEFEFE" opacity="1.000000" stroke="none" 
	d="
M713.433472,292.265533 
	C708.403625,291.735107 703.799622,291.323822 699.043823,290.898956 
	C699.043823,281.407898 699.043823,272.132538 699.043823,262.406464 
	C724.650574,261.916840 749.075012,265.205994 769.516602,282.237061 
	C782.741333,293.255341 789.311401,308.260620 789.783386,324.979828 
	C790.817017,361.597443 790.587646,398.249451 791.045898,434.885254 
	C791.195679,446.859100 792.560547,458.660675 798.881104,469.293457 
	C806.999146,482.950073 820.051025,488.925262 834.892944,492.508545 
	C834.892944,500.228546 834.892944,508.032593 834.892944,514.814880 
	C826.044067,519.420959 817.292236,523.234558 809.329773,528.291138 
	C796.669922,536.330750 791.529541,549.313538 791.202576,563.454712 
	C790.428711,596.921814 790.678650,630.413025 790.573853,663.894775 
	C790.520935,680.818542 788.109497,697.038269 778.967407,711.857788 
	C767.436096,730.550232 749.970947,739.915771 729.270447,743.832947 
	C719.431824,745.694641 709.258606,745.787903 698.707153,746.729614 
	C698.707153,736.237000 698.707153,726.983948 698.707153,717.562378 
	C703.969543,716.923218 709.413452,716.648376 714.686707,715.552368 
	C734.000061,711.538086 743.636230,698.346375 746.862488,679.923096 
	C748.258606,671.950195 748.776917,663.740417 748.837524,655.631775 
	C749.059143,625.974792 749.079834,596.313843 748.867493,566.656677 
	C748.694641,542.515686 759.840942,525.357422 780.458862,513.813660 
	C786.149902,510.627289 792.055481,507.824066 798.125916,504.709930 
	C786.580261,499.552460 775.431091,494.100250 766.458618,485.066406 
	C755.041992,473.571777 749.224548,459.626373 749.092346,443.652130 
	C748.795898,407.831787 749.322144,372.002258 748.754944,336.188477 
	C748.627747,328.159668 746.526062,319.687622 743.324890,312.288574 
	C737.954895,299.876709 726.733582,294.526886 713.433472,292.265533 
z"/>
</svg>