<svg version="1.1" id="Layer_1" xmlns="http://www.w3.org/2000/svg" xmlns:xlink="http://www.w3.org/1999/xlink" x="0px" y="0px"
	 width="100%" viewBox="0 0 371 343" enable-background="new 0 0 371 343" xml:space="preserve">
<path fill="#F8F8F8" opacity="1.000000" stroke="none" 
	d="
M129.228851,185.547180 
	C129.213974,181.297333 129.213974,177.503006 129.213974,172.997787 
	C137.164642,172.997787 144.609604,172.757782 152.028107,173.096680 
	C155.872238,173.272293 157.227905,171.815018 158.003220,168.290039 
	C159.720276,160.483353 161.946106,152.789856 163.767792,145.004196 
	C164.372253,142.420776 165.530609,141.431015 168.209427,141.543045 
	C172.814270,141.735611 177.432999,141.596298 182.785492,141.596298 
	C180.111252,152.195145 177.606659,162.121643 174.881989,172.920380 
	C183.123047,172.920380 190.692734,173.047089 198.245712,172.749603 
	C199.125473,172.714951 200.303284,170.437561 200.678253,169.023666 
	C202.770859,161.132935 204.776520,153.214172 206.553177,145.247284 
	C207.179871,142.437042 208.368942,141.386032 211.271835,141.536423 
	C215.742355,141.768066 220.233749,141.597397 225.599655,141.597397 
	C222.952057,152.145081 220.430115,162.192184 217.751678,172.862671 
	C223.263763,172.862671 228.019165,172.862671 233.073608,172.862671 
	C233.073608,177.939468 233.073608,182.532501 233.073608,187.865311 
	C227.952347,187.865311 222.863281,188.011871 217.788239,187.808350 
	C214.910645,187.692947 213.658066,188.713379 213.050339,191.535080 
	C211.687714,197.861893 209.989334,204.116394 208.264511,211.056885 
	C216.764191,211.056885 224.798126,211.056885 233.100616,211.056885 
	C233.100616,216.234970 233.100616,220.840179 233.100616,226.185608 
	C227.404556,226.185608 221.666641,226.185593 215.928726,226.185593 
	C204.550461,226.185593 204.549805,226.185440 201.744400,237.445740 
	C200.656738,241.811432 199.427505,246.148834 198.540741,250.555054 
	C197.994812,253.267700 196.977310,254.564758 193.942520,254.380249 
	C189.469833,254.108292 184.968338,254.310028 179.681229,254.310028 
	C181.915222,244.919525 184.049332,235.948868 186.367584,226.204224 
	C178.430130,226.204224 171.022110,226.078079 163.629410,226.357224 
	C162.659866,226.393829 161.281555,228.373474 160.922775,229.680984 
	C159.027405,236.588608 157.297989,243.546722 155.726974,250.535873 
	C155.126648,253.206573 154.160446,254.562134 151.118759,254.379196 
	C146.652206,254.110565 142.157486,254.309967 136.921906,254.309967 
	C139.194946,244.883057 141.353882,235.929382 143.650970,226.402740 
	C138.791290,226.402740 134.393066,226.402740 129.606003,226.402740 
	C129.606003,221.225983 129.606003,216.541000 129.606003,211.273972 
	C134.398621,211.273972 139.024246,211.114456 143.631927,211.332916 
	C146.462311,211.467102 147.790161,210.623077 148.377518,207.713776 
	C149.655777,201.382294 151.312637,195.127243 153.048172,187.864197 
	C146.355164,187.864197 140.297592,187.996674 134.252655,187.778854 
	C132.563873,187.717987 130.912338,186.623215 129.228851,185.547180 
M188.460938,187.836395 
	C183.818130,187.837799 179.162018,187.644089 174.540604,187.959290 
	C173.150421,188.054108 171.000305,189.313004 170.660385,190.468658 
	C168.704468,197.118698 167.187653,203.897873 165.363754,211.273102 
	C173.354446,211.273102 180.775208,211.316925 188.193710,211.207230 
	C188.958603,211.195923 190.215103,210.403625 190.389923,209.746613 
	C192.276825,202.655045 193.992508,195.517929 195.892746,187.836395 
	C193.044128,187.836395 191.244751,187.836395 188.460938,187.836395 
z"/>
<path fill="#F9F9F9" opacity="1.000000" stroke="none" 
	d="
M317.175385,216.990295 
	C311.560944,221.049850 310.452057,226.658432 310.438385,232.682724 
	C310.407043,246.506378 310.454010,260.330231 310.409424,274.153839 
	C310.347504,293.357880 298.761139,305.006683 279.636810,305.149567 
	C276.326904,305.174316 273.016663,305.153076 269.321289,305.153076 
	C269.321289,297.895844 269.321289,290.998535 269.321289,283.318604 
	C271.398804,283.318604 273.497894,283.369110 275.593872,283.309784 
	C284.322876,283.062744 288.785767,278.643341 288.849335,269.919678 
	C288.940369,257.428986 289.318024,244.917099 288.751740,232.451584 
	C288.200775,220.324097 290.432922,209.878067 302.271698,203.113770 
	C300.424347,201.591339 299.062256,200.504349 297.738861,199.372131 
	C291.849457,194.333405 288.683502,188.162979 288.819092,180.178085 
	C289.045319,166.857880 288.891479,153.530975 288.871368,140.206909 
	C288.853455,128.332947 284.843109,124.346550 272.953247,124.320473 
	C270.989410,124.316162 269.025543,124.319870 266.767944,124.319870 
	C266.767944,116.976448 266.767944,110.085899 266.767944,103.227135 
	C273.693573,103.227135 280.409088,102.557060 286.940094,103.369820 
	C299.643097,104.950638 309.913879,116.895370 310.276733,130.139206 
	C310.614166,142.455032 310.410339,154.786041 310.418884,167.110397 
	C310.432678,187.086243 312.517792,189.521439 332.505554,192.418762 
	C332.505554,199.105209 332.505554,205.861328 332.505554,212.559448 
	C327.559967,213.951370 322.527161,215.367844 317.175385,216.990295 
z"/>
<path fill="#F9F9F9" opacity="1.000000" stroke="none" 
	d="
M75.218414,268.618530 
	C74.935318,274.251556 76.112419,279.216797 81.072243,281.348694 
	C85.178062,283.113525 89.967583,283.287720 94.831940,284.240631 
	C94.831940,290.786285 94.831940,297.669617 94.831940,304.875793 
	C83.902138,305.455170 73.299339,306.251709 64.251801,298.665161 
	C57.138802,292.700714 53.701603,285.118744 53.696892,275.904602 
	C53.690079,262.573578 53.446667,249.236984 53.752937,235.913071 
	C54.081657,221.612350 49.407917,214.075409 34.128788,213.655243 
	C33.330231,213.633301 32.539349,213.332184 31.516886,213.111923 
	C31.516886,206.200317 31.516886,199.456192 31.516886,192.306305 
	C33.249653,192.133392 34.846878,191.979248 36.442940,191.813889 
	C48.821983,190.531418 53.543045,185.487457 53.652534,173.018204 
	C53.773968,159.188293 53.696960,145.356644 53.705997,131.525742 
	C53.712475,121.606354 57.784145,113.493637 65.979843,108.237053 
	C70.276421,105.481300 75.672966,103.919960 80.779251,103.090828 
	C86.090599,102.228394 91.650803,102.898560 97.376801,102.898560 
	C97.376801,110.127174 97.376801,116.887489 97.376801,124.325974 
	C94.454453,124.325974 91.676666,124.278099 88.901024,124.334785 
	C79.922699,124.518127 75.321800,129.018723 75.245247,137.944275 
	C75.146645,149.441452 74.836266,160.956207 75.320511,172.433716 
	C75.839912,184.744492 74.388962,195.851746 61.652225,202.459015 
	C63.422775,203.917847 64.537331,204.859787 65.676575,205.770889 
	C71.895378,210.744339 75.305977,217.022614 75.243011,225.168945 
	C75.132256,239.498886 75.215546,253.830322 75.218414,268.618530 
z"/>
<path fill="#F8F8F8" opacity="1.000000" stroke="none" 
	d="
M168.558502,23.269138 
	C177.331512,23.267363 185.666611,23.117290 193.988235,23.385340 
	C195.770264,23.442741 198.365814,24.546963 199.132538,25.958664 
	C216.384048,57.722679 233.433807,89.596275 250.505402,121.457886 
	C250.797241,122.002571 250.889404,122.654243 251.319550,124.050980 
	C242.635284,124.050980 234.396317,124.235641 226.183060,123.859207 
	C224.896790,123.800262 223.363571,121.370491 222.558319,119.734810 
	C209.755936,93.729904 197.055664,67.674728 184.323853,41.635059 
	C183.526932,40.005138 182.662201,38.408379 181.325150,35.821201 
	C180.163391,38.047195 179.333374,39.511810 178.616470,41.029854 
	C166.309906,67.089470 153.935059,93.117554 141.813492,119.263039 
	C140.068024,123.027878 137.975952,124.357094 133.899704,124.163780 
	C126.767609,123.825539 119.607903,124.069450 111.617599,124.069450 
	C112.413033,122.197639 112.857407,120.876854 113.506142,119.665520 
	C130.021271,88.828156 146.521561,57.982620 163.187500,27.226871 
	C164.112839,25.519258 166.440735,24.571667 168.558502,23.269138 
z"/>
<path fill="#080808" opacity="1.000000" stroke="none" 
	d="
M188.953156,187.836395 
	C191.244751,187.836395 193.044128,187.836395 195.892746,187.836395 
	C193.992508,195.517929 192.276825,202.655045 190.389923,209.746613 
	C190.215103,210.403625 188.958603,211.195923 188.193710,211.207230 
	C180.775208,211.316925 173.354446,211.273102 165.363754,211.273102 
	C167.187653,203.897873 168.704468,197.118698 170.660385,190.468658 
	C171.000305,189.313004 173.150421,188.054108 174.540604,187.959290 
	C179.162018,187.644089 183.818130,187.837799 188.953156,187.836395 
z"/>
</svg>